<svg width="97" height="20" viewBox="0 0 97 20" fill="none" xmlns="http://www.w3.org/2000/svg">
<path d="M9.53 19.286C7.83133 19.286 6.306 18.974 4.954 18.35C3.61933 17.7087 2.562 16.764 1.782 15.516C1.01933 14.2507 0.638 12.6993 0.638 10.862C0.638 9.38867 0.863333 8.01933 1.314 6.754C1.76467 5.48867 2.42333 4.37933 3.29 3.426C4.174 2.47267 5.25733 1.72733 6.54 1.19C7.84 0.652666 9.33067 0.383999 11.012 0.383999C12.26 0.383999 13.4387 0.574666 14.548 0.956C15.6573 1.32 16.5327 1.79667 17.174 2.386L15.38 6.13C13.976 5.07267 12.4853 4.544 10.908 4.544C9.74667 4.544 8.776 4.82133 7.996 5.376C7.23333 5.91333 6.65267 6.65 6.254 7.586C5.87267 8.50467 5.682 9.536 5.682 10.68C5.682 12.2053 6.03733 13.332 6.748 14.06C7.45867 14.7707 8.57667 15.126 10.102 15.126C10.778 15.126 11.48 15.0133 12.208 14.788C12.936 14.5627 13.6987 14.19 14.496 13.67L15.692 17.44C15.2067 17.8213 14.6173 18.1507 13.924 18.428C13.2307 18.7053 12.5027 18.9133 11.74 19.052C10.9773 19.208 10.2407 19.286 9.53 19.286Z" fill="#5A4CFF"/>
<path d="M18.4996 19L21.4116 0.669999H29.2896C31.3869 0.669999 32.9903 1.138 34.0996 2.074C35.2263 2.99267 35.7896 4.26667 35.7896 5.896C35.7896 7.62933 35.3303 8.99 34.4116 9.978C33.5103 10.9487 32.3229 11.59 30.8496 11.902C31.3523 12.0927 31.7769 12.4047 32.1236 12.838C32.4703 13.254 32.7649 13.7653 33.0076 14.372L34.7756 19H29.8876L27.8076 13.488C27.6343 13.0027 27.4003 12.6647 27.1056 12.474C26.8283 12.266 26.4383 12.162 25.9356 12.162H24.3756L23.2836 19H18.4996ZM24.8956 8.782H28.3536C30.2776 8.782 31.2396 7.96733 31.2396 6.338C31.2396 5.662 31.0143 5.15933 30.5636 4.83C30.1303 4.50067 29.4369 4.336 28.4836 4.336H25.5976L24.8956 8.782ZM35.2916 19L46.7836 0.669999H50.5796L56.2216 19H51.6456L50.6836 15.282H42.4416L40.2576 19H35.2916ZM48.1096 5.662L44.5996 11.616H49.7216L48.1616 5.662H48.1096ZM65.5596 19.286C64.2076 19.286 62.8816 19.1127 61.5816 18.766C60.2816 18.402 59.129 17.856 58.1236 17.128L59.6836 13.54C60.741 14.1987 61.8243 14.6667 62.9336 14.944C64.043 15.2213 65.0743 15.36 66.0276 15.36C67.0156 15.36 67.7696 15.204 68.2896 14.892C68.827 14.58 69.0956 14.1727 69.0956 13.67C69.0956 13.2713 68.931 12.9333 68.6016 12.656C68.2896 12.3787 67.787 12.1707 67.0936 12.032L64.1036 11.304C62.7863 11.0093 61.7376 10.446 60.9576 9.614C60.195 8.782 59.8136 7.75067 59.8136 6.52C59.8136 5.20267 60.169 4.09333 60.8796 3.192C61.6076 2.27333 62.561 1.58 63.7396 1.112C64.9356 0.626666 66.2183 0.383999 67.5876 0.383999C68.7316 0.383999 69.893 0.548666 71.0716 0.877999C72.2676 1.20733 73.351 1.72733 74.3216 2.438L72.6836 5.844C71.9036 5.28933 71.0456 4.89933 70.1096 4.674C69.191 4.43133 68.3416 4.31 67.5616 4.31C66.6083 4.31 65.8543 4.47467 65.2996 4.804C64.7623 5.116 64.4936 5.52333 64.4936 6.026C64.4936 6.806 65.1003 7.34333 66.3136 7.638L69.3036 8.34C70.725 8.66933 71.8256 9.25867 72.6056 10.108C73.3856 10.94 73.7756 11.9453 73.7756 13.124C73.7756 14.164 73.5503 15.074 73.0996 15.854C72.649 16.6167 72.0423 17.258 71.2796 17.778C70.517 18.2807 69.6416 18.662 68.6536 18.922C67.6656 19.1647 66.6343 19.286 65.5596 19.286ZM76.2672 19L79.1792 0.669999H83.9632L82.8452 7.742H90.3852L91.5292 0.669999H96.2872L93.3752 19H88.6172L89.7612 11.668H82.2212L81.0512 19H76.2672Z" fill="white"/>
</svg>
