<?xml version="1.0" standalone="no"?>
<!DOCTYPE svg PUBLIC "-//W3C//DTD SVG 20010904//EN"
 "http://www.w3.org/TR/2001/REC-SVG-20010904/DTD/svg10.dtd">
<svg version="1.0" xmlns="http://www.w3.org/2000/svg"
 width="512.000000pt" height="512.000000pt" viewBox="0 0 512.000000 512.000000"
 preserveAspectRatio="xMidYMid meet">

<g transform="translate(0.000000,512.000000) scale(0.100000,-0.100000)"
fill="#231D47" stroke="none">
<path d="M3770 4555 l-395 -395 133 -132 132 -133 163 163 164 164 -9 -69
c-26 -202 -112 -489 -203 -679 -383 -807 -1130 -1338 -2004 -1424 -60 -6 -416
-10 -847 -10 l-744 0 0 -190 0 -190 678 0 c845 0 1014 10 1297 71 822 180
1543 742 1921 1499 77 154 133 295 180 448 38 127 89 369 99 472 4 36 9 72 11
79 3 10 63 -43 174 -154 l170 -170 132 133 133 132 -390 390 c-214 214 -392
390 -395 390 -3 0 -183 -178 -400 -395z"/>
<path d="M4320 2928 c-58 -106 -189 -302 -268 -402 l-62 -79 0 -1143 0 -1144
190 0 190 0 0 1425 c0 784 -1 1425 -2 1425 -2 0 -23 -37 -48 -82z"/>
<path d="M3505 1978 c-49 -39 -134 -100 -188 -136 l-97 -65 2 -806 3 -806 188
-3 187 -2 0 945 c0 520 -1 945 -2 945 -2 0 -43 -32 -93 -72z"/>
<path d="M2755 1537 c-38 -16 -122 -49 -185 -71 l-115 -41 0 -630 0 -630 188
-3 187 -2 0 705 c0 388 -1 705 -2 704 -2 -1 -34 -15 -73 -32z"/>
<path d="M1915 1314 c-49 -7 -111 -13 -137 -13 -86 -2 -78 55 -78 -577 l0
-564 185 0 185 0 0 585 0 585 -32 -1 c-18 -1 -73 -8 -123 -15z"/>
<path d="M160 725 l0 -565 185 0 185 0 0 565 0 565 -185 0 -185 0 0 -565z"/>
<path d="M930 725 l0 -565 185 0 185 0 0 565 0 565 -185 0 -185 0 0 -565z"/>
</g>
</svg>
