<svg width="11" height="10" viewBox="0 0 11 10" fill="none" xmlns="http://www.w3.org/2000/svg">
<g clip-path="url(#clip0_20_2968)">
<path d="M5.07371 0.000423886C2.2825 0.0373804 0.0502323 2.30597 0.0873708 5.06727C0.124729 7.82738 2.41776 10.0363 5.20886 9.99956C7.99952 9.96238 10.2322 7.6938 10.1951 4.93271C10.1577 2.17238 7.86459 -0.036424 5.07371 0.000423886ZM5.05876 8.04347L5.03086 8.04304C4.60102 8.03043 4.29797 7.71717 4.31017 7.29825C4.32215 6.88651 4.63255 6.5876 5.04822 6.5876L5.07316 6.58804C5.51497 6.60097 5.81461 6.91108 5.80219 7.34206C5.78989 7.75499 5.48432 8.04347 5.05876 8.04347ZM6.86679 4.49358C6.76571 4.63564 6.54342 4.81206 6.26335 5.02793L5.95492 5.23858C5.7856 5.3688 5.68342 5.4913 5.64507 5.61184C5.61485 5.70673 5.60002 5.73184 5.59738 5.92488L5.59694 5.9739H4.41928L4.42268 5.87532C4.43708 5.4701 4.44719 5.23173 4.61695 5.03477C4.88329 4.72543 5.4708 4.35119 5.49575 4.33532C5.57991 4.2726 5.65089 4.20119 5.70374 4.12488C5.82735 3.9563 5.88207 3.82358 5.88207 3.69314C5.88207 3.51216 5.82779 3.34477 5.72044 3.19575C5.61727 3.05195 5.42125 2.97912 5.13777 2.97912C4.85659 2.97912 4.66409 3.06738 4.54893 3.24847C4.43049 3.43466 4.3706 3.63021 4.3706 3.82999V3.87966H3.15635L3.15855 3.82782C3.18986 3.09206 3.45533 2.56227 3.94725 2.25314C4.25633 2.05629 4.6409 1.95651 5.08964 1.95651C5.67704 1.95651 6.17292 2.09771 6.56331 2.37619C6.95887 2.65836 7.15951 3.08097 7.15951 3.63227C7.15951 3.94064 7.06106 4.23032 6.86679 4.49358Z" fill="#948AC5"/>
</g>
<defs>
<clipPath id="clip0_20_2968">
<rect width="10.1087" height="10" fill="white" transform="translate(0.0869141)"/>
</clipPath>
</defs>
</svg>
