<svg width="12" height="10" viewBox="0 0 12 10" fill="none" xmlns="http://www.w3.org/2000/svg">
<path d="M6.39058 0.787489C6.26246 0.743739 6.11871 0.768739 6.01246 0.853115L2.95308 3.27812H1.50308C1.1187 3.27812 0.809326 3.58749 0.809326 3.97187V6.03125C0.809326 6.41562 1.1187 6.725 1.50308 6.725H2.95308L6.01246 9.15C6.11871 9.23437 6.26246 9.25937 6.39058 9.21562C6.68433 9.11562 6.89683 8.83437 6.89683 8.50625V1.49374C6.89683 1.16561 6.68433 0.887489 6.39058 0.787489Z" fill="#948AC5"/>
<path d="M7.79361 7.10938C7.72173 7.10938 7.64673 7.08438 7.58736 7.03125C7.45924 6.91875 7.44674 6.71875 7.55924 6.59063C7.94673 6.15 8.15923 5.5875 8.15923 5C8.15923 4.41563 7.94673 3.85 7.55924 3.40938C7.44674 3.28125 7.45924 3.08125 7.58736 2.96875C7.71548 2.85625 7.91548 2.86875 8.02798 2.99688C8.51548 3.55 8.78423 4.2625 8.78423 5C8.78423 5.7375 8.51548 6.45 8.02798 7.00313C7.96548 7.07188 7.88111 7.10938 7.79361 7.10938Z" fill="#948AC5"/>
<path d="M8.76571 7.81874C8.69696 7.81874 8.62508 7.79686 8.56571 7.74686C8.43133 7.63749 8.41258 7.44061 8.52508 7.30624C9.0532 6.66561 9.34383 5.85311 9.34383 5.02186C9.34383 4.16874 9.0407 3.34374 8.49071 2.69686C8.37821 2.56561 8.39383 2.36874 8.52508 2.25624C8.65633 2.14374 8.8532 2.15936 8.9657 2.29061C9.61258 3.04999 9.96883 4.02186 9.96883 5.02186C9.96883 5.99999 9.6282 6.95311 9.00633 7.70624C8.94695 7.78124 8.85633 7.81874 8.76571 7.81874Z" fill="#948AC5"/>
<path d="M9.70624 8.58438C9.63749 8.58438 9.56562 8.5625 9.50624 8.5125C9.37187 8.40313 9.35312 8.20625 9.46562 8.07188C10.175 7.2125 10.5656 6.125 10.5656 5.00938C10.5656 3.88438 10.1687 2.79063 9.44999 1.92813C9.34062 1.79688 9.35625 1.6 9.49062 1.4875C9.62187 1.37813 9.81874 1.39375 9.93124 1.52813C10.7437 2.50313 11.1906 3.7375 11.1906 5.00938C11.1906 6.26875 10.75 7.49688 9.94999 8.46875C9.88749 8.54375 9.79687 8.58438 9.70624 8.58438Z" fill="#948AC5"/>
</svg>
