<svg width="30" height="30" viewBox="0 0 30 30" fill="none" xmlns="http://www.w3.org/2000/svg">
<rect width="30" height="30" fill="#5A4CFF"/>
<path d="M9.86 19.132C9.076 19.132 8.372 18.988 7.748 18.7C7.132 18.404 6.644 17.968 6.284 17.392C5.932 16.808 5.756 16.092 5.756 15.244C5.756 14.564 5.86 13.932 6.068 13.348C6.276 12.764 6.58 12.252 6.98 11.812C7.388 11.372 7.888 11.028 8.48 10.78C9.08 10.532 9.768 10.408 10.544 10.408C11.12 10.408 11.664 10.496 12.176 10.672C12.688 10.84 13.092 11.06 13.388 11.332L12.56 13.06C11.912 12.572 11.224 12.328 10.496 12.328C9.96 12.328 9.512 12.456 9.152 12.712C8.8 12.96 8.532 13.3 8.348 13.732C8.172 14.156 8.084 14.632 8.084 15.16C8.084 15.864 8.248 16.384 8.576 16.72C8.904 17.048 9.42 17.212 10.124 17.212C10.436 17.212 10.76 17.16 11.096 17.056C11.432 16.952 11.784 16.78 12.152 16.54L12.704 18.28C12.48 18.456 12.208 18.608 11.888 18.736C11.568 18.864 11.232 18.96 10.88 19.024C10.528 19.096 10.188 19.132 9.86 19.132ZM14.5383 19L15.8823 10.54H17.5023L20.5863 15.592L21.3783 10.54H23.4303L22.0863 19H20.4663L17.3943 13.948L16.5903 19H14.5383Z" fill="white"/>
</svg>
