<svg width="10" height="10" viewBox="0 0 10 10" fill="none" xmlns="http://www.w3.org/2000/svg">
<g clip-path="url(#clip0_20_2974)">
<path d="M3.12631 1.25V3.75V7.62812C2.69881 7.44187 2.10569 7.44187 1.53194 7.73687C0.679435 8.17562 0.43881 8.97438 0.766935 9.48125C1.09506 9.98813 1.99194 10.2013 2.84506 9.76313C3.45881 9.44688 3.75506 8.94375 3.75069 8.49875V3.625L8.75069 2.625V7.00312C8.32256 6.81687 7.73006 6.81687 7.15631 7.11187C6.30381 7.55062 6.06319 8.34938 6.39131 8.85625C6.71881 9.36313 7.61569 9.57625 8.46881 9.13813C9.08131 8.8225 9.37819 8.32 9.37444 7.875V2.5V0.625V0L3.12631 1.25Z" fill="#948AC5"/>
</g>
<defs>
<clipPath id="clip0_20_2974">
<rect width="10" height="10" fill="white"/>
</clipPath>
</defs>
</svg>
