<svg width="12" height="12" viewBox="0 0 12 12" fill="none" xmlns="http://www.w3.org/2000/svg">
<path d="M6 0.3125C2.85902 0.3125 0.3125 2.85902 0.3125 6C0.3125 9.14098 2.85902 11.6875 6 11.6875C9.14098 11.6875 11.6875 9.14098 11.6875 6C11.6875 2.85902 9.14098 0.3125 6 0.3125ZM8.625 6.875H6C5.88397 6.875 5.77269 6.82891 5.69064 6.74686C5.60859 6.66481 5.5625 6.55353 5.5625 6.4375V2.5C5.5625 2.38397 5.60859 2.27269 5.69064 2.19064C5.77269 2.10859 5.88397 2.0625 6 2.0625C6.11603 2.0625 6.22731 2.10859 6.30936 2.19064C6.39141 2.27269 6.4375 2.38397 6.4375 2.5V6H8.625C8.74103 6 8.85231 6.04609 8.93436 6.12814C9.01641 6.21019 9.0625 6.32147 9.0625 6.4375C9.0625 6.55353 9.01641 6.66481 8.93436 6.74686C8.85231 6.82891 8.74103 6.875 8.625 6.875Z" fill="#81819C"/>
</svg>
