<?xml version="1.0" standalone="no"?>
<!DOCTYPE svg PUBLIC "-//W3C//DTD SVG 20010904//EN"
 "http://www.w3.org/TR/2001/REC-SVG-20010904/DTD/svg10.dtd">
<svg version="1.0" xmlns="http://www.w3.org/2000/svg"
 width="512.000000pt" height="512.000000pt" viewBox="0 0 512.000000 512.000000"
 preserveAspectRatio="xMidYMid meet">

<g transform="translate(0.000000,512.000000) scale(0.100000,-0.100000)"
fill="#231D47" stroke="none">
<path d="M650 4746 c-146 -40 -250 -149 -280 -294 -7 -31 -9 -692 -8 -1922 3
-1851 3 -1876 23 -1922 45 -105 118 -178 223 -223 46 -20 71 -20 1926 -23
2091 -3 1949 -7 2056 66 65 44 119 113 146 185 19 51 19 95 19 1947 0 1852 0
1896 -19 1947 -27 72 -81 141 -146 185 -107 73 33 68 -2035 67 -1446 0 -1870
-3 -1905 -13z m672 -357 c92 -19 177 -66 249 -138 199 -199 199 -503 0 -702
-199 -199 -499 -199 -701 0 -200 197 -201 503 -1 702 123 122 288 172 453 138z
m2680 0 c92 -19 177 -66 249 -138 199 -199 199 -503 0 -702 -199 -199 -499
-199 -701 0 -200 197 -201 503 -1 702 123 122 288 172 453 138z m-2680 -1340
c187 -39 348 -200 387 -387 35 -166 -15 -330 -138 -453 -199 -199 -499 -199
-701 0 -200 197 -201 503 -1 702 123 123 287 173 453 138z m2680 0 c226 -47
398 -259 398 -489 0 -270 -230 -500 -500 -500 -269 0 -500 231 -500 500 0 225
164 433 383 486 66 16 152 17 219 3z m-2680 -1340 c92 -19 177 -66 249 -138
199 -199 199 -503 0 -702 -199 -199 -499 -199 -701 0 -200 197 -201 503 -1
702 123 122 288 172 453 138z m2680 0 c92 -19 177 -66 249 -138 199 -199 199
-503 0 -702 -199 -199 -499 -199 -701 0 -200 197 -201 503 -1 702 123 122 288
172 453 138z"/>
</g>
</svg>
