<svg width="10" height="10" viewBox="0 0 10 10" fill="none" xmlns="http://www.w3.org/2000/svg">
<path d="M9.375 4.6875V3.75C9.375 3.4048 9.09516 3.125 8.75 3.125H1.875C1.53031 3.125 1.25 2.84469 1.25 2.5C1.25 2.15531 1.53031 1.875 1.875 1.875H8.75C9.09516 1.875 9.375 1.59516 9.375 1.25C9.375 0.904844 9.09516 0.625 8.75 0.625H1.875C0.841055 0.625 0 1.46607 0 2.5V3.125V8.125C0 8.81535 0.559687 9.375 1.25 9.375H8.75C9.09516 9.375 9.375 9.0952 9.375 8.75V7.8125C9.72016 7.8125 10 7.5327 10 7.1875V5.3125C10 4.9673 9.72016 4.6875 9.375 4.6875ZM8.4375 6.875C8.09234 6.875 7.8125 6.5952 7.8125 6.25C7.8125 5.9048 8.09234 5.625 8.4375 5.625C8.78266 5.625 9.0625 5.9048 9.0625 6.25C9.0625 6.5952 8.78266 6.875 8.4375 6.875Z" fill="#948AC5"/>
</svg>
